<?xml version="1.0" standalone="no"?><!DOCTYPE svg PUBLIC "-//W3C//DTD SVG 1.1//EN" "http://www.w3.org/Graphics/SVG/1.1/DTD/svg11.dtd"><svg t="1571813157271" class="icon" viewBox="0 0 1024 1024" version="1.1" xmlns="http://www.w3.org/2000/svg" p-id="1292" width="1000" height="1000" xmlns:xlink="http://www.w3.org/1999/xlink"><defs><style type="text/css"></style></defs><path d="M512 585.142857m-432.207792 0a432.207792 432.207792 0 1 0 864.415584 0 432.207792 432.207792 0 1 0-864.415584 0Z" fill="#1E3457" p-id="1293"></path><path d="M206.076675 899.79013C124.076883 820.077714 73.142857 708.554805 73.142857 585.142857c0-242.368831 196.488312-438.857143 438.857143-438.857143a436.809143 436.809143 0 0 1 239.429818 71.015065C833.42961 297.013195 884.363636 408.536104 884.363636 531.948052c0 242.368831-196.488312 438.857143-438.857142 438.857143a436.809143 436.809143 0 0 1-239.429819-71.015065z" fill="#4C6389" p-id="1294"></path><path d="M512 1024c242.368831 0 438.857143-196.488312 438.857143-438.857143S754.368831 146.285714 512 146.285714 73.142857 342.774026 73.142857 585.142857s196.488312 438.857143 438.857143 438.857143z m0-13.298701C276.972052 1010.701299 86.441558 820.170805 86.441558 585.142857c0-235.027948 190.530494-425.558442 425.558442-425.558441 235.027948 0 425.558442 190.530494 425.558442 425.558441 0 235.027948-190.530494 425.558442-425.558442 425.558442z" fill="#12274C" p-id="1295"></path><path d="M232.727273 265.974026m39.896104 0l159.584415 0q39.896104 0 39.896104 39.896104l0 159.584415q0 39.896104-39.896104 39.896104l-159.584415 0q-39.896104 0-39.896104-39.896104l0-159.584415q0-39.896104 39.896104-39.896104Z" fill="#FA3CCC" p-id="1296"></path><path d="M551.896104 558.545455m39.896104 0l159.584415 0q39.896104 0 39.896104 39.896103l0 159.584416q0 39.896104-39.896104 39.896104l-159.584415 0q-39.896104 0-39.896104-39.896104l0-159.584416q0-39.896104 39.896104-39.896103Z" fill="#FA3CCC" p-id="1297"></path><path d="M470.388364 477.037714A39.896104 39.896104 0 0 1 458.805195 478.753247H299.220779a39.896104 39.896104 0 0 1-39.896104-39.896104V279.272727a39.896104 39.896104 0 0 1 1.715533-11.583169A39.896104 39.896104 0 0 1 272.623377 265.974026h159.584415a39.896104 39.896104 0 0 1 39.896104 39.896104v159.584415a39.896104 39.896104 0 0 1-1.715532 11.583169zM789.557195 769.609143A39.896104 39.896104 0 0 1 777.974026 771.324675H618.38961a39.896104 39.896104 0 0 1-39.896104-39.896104V571.844156a39.896104 39.896104 0 0 1 1.715533-11.583169A39.896104 39.896104 0 0 1 591.792208 558.545455h159.584415a39.896104 39.896104 0 0 1 39.896104 39.896103v159.584416a39.896104 39.896104 0 0 1-1.715532 11.583169z" fill="#FF80E0" p-id="1298"></path><path d="M272.623377 265.974026h159.584415a39.896104 39.896104 0 0 1 39.896104 39.896104v159.584415a39.896104 39.896104 0 0 1-39.896104 39.896104H272.623377a39.896104 39.896104 0 0 1-39.896104-39.896104V305.87013a39.896104 39.896104 0 0 1 39.896104-39.896104z m0 13.298701a26.597403 26.597403 0 0 0-26.597403 26.597403v159.584415a26.597403 26.597403 0 0 0 26.597403 26.597403h159.584415a26.597403 26.597403 0 0 0 26.597403-26.597403V305.87013a26.597403 26.597403 0 0 0-26.597403-26.597403H272.623377zM591.792208 558.545455h159.584415a39.896104 39.896104 0 0 1 39.896104 39.896103v159.584416a39.896104 39.896104 0 0 1-39.896104 39.896104H591.792208a39.896104 39.896104 0 0 1-39.896104-39.896104V598.441558a39.896104 39.896104 0 0 1 39.896104-39.896103z m0 13.298701a26.597403 26.597403 0 0 0-26.597403 26.597402v159.584416a26.597403 26.597403 0 0 0 26.597403 26.597403h159.584415a26.597403 26.597403 0 0 0 26.597403-26.597403V598.441558a26.597403 26.597403 0 0 0-26.597403-26.597402H591.792208z" fill="#540047" p-id="1299"></path><path d="M558.545455 272.623377m39.896103 0l146.285715 0q39.896104 0 39.896104 39.896104l0 146.285714q0 39.896104-39.896104 39.896104l-146.285715 0q-39.896104 0-39.896103-39.896104l0-146.285714q0-39.896104 39.896103-39.896104Z" fill="#FAB73C" p-id="1300"></path><path d="M239.376623 565.194805m39.896104 0l146.285715 0q39.896104 0 39.896103 39.896104l0 146.285714q0 39.896104-39.896103 39.896104l-146.285715 0q-39.896104 0-39.896104-39.896104l0-146.285714q0-39.896104 39.896104-39.896104Z" fill="#FAB73C" p-id="1301"></path><path d="M789.557195 477.037714A39.896104 39.896104 0 0 1 777.974026 478.753247H618.38961a39.896104 39.896104 0 0 1-39.896104-39.896104V279.272727a39.896104 39.896104 0 0 1 1.715533-11.583169A39.896104 39.896104 0 0 1 591.792208 265.974026h159.584415a39.896104 39.896104 0 0 1 39.896104 39.896104v159.584415a39.896104 39.896104 0 0 1-1.715532 11.583169zM470.388364 769.609143A39.896104 39.896104 0 0 1 458.805195 771.324675H299.220779a39.896104 39.896104 0 0 1-39.896104-39.896104V571.844156a39.896104 39.896104 0 0 1 1.715533-11.583169A39.896104 39.896104 0 0 1 272.623377 558.545455h159.584415a39.896104 39.896104 0 0 1 39.896104 39.896103v159.584416a39.896104 39.896104 0 0 1-1.715532 11.583169z" fill="#FFCD70" p-id="1302"></path><path d="M591.792208 265.974026h159.584415a39.896104 39.896104 0 0 1 39.896104 39.896104v159.584415a39.896104 39.896104 0 0 1-39.896104 39.896104H591.792208a39.896104 39.896104 0 0 1-39.896104-39.896104V305.87013a39.896104 39.896104 0 0 1 39.896104-39.896104z m0 13.298701a26.597403 26.597403 0 0 0-26.597403 26.597403v159.584415a26.597403 26.597403 0 0 0 26.597403 26.597403h159.584415a26.597403 26.597403 0 0 0 26.597403-26.597403V305.87013a26.597403 26.597403 0 0 0-26.597403-26.597403H591.792208zM272.623377 558.545455h159.584415a39.896104 39.896104 0 0 1 39.896104 39.896103v159.584416a39.896104 39.896104 0 0 1-39.896104 39.896104H272.623377a39.896104 39.896104 0 0 1-39.896104-39.896104V598.441558a39.896104 39.896104 0 0 1 39.896104-39.896103z m0 13.298701a26.597403 26.597403 0 0 0-26.597403 26.597402v159.584416a26.597403 26.597403 0 0 0 26.597403 26.597403h159.584415a26.597403 26.597403 0 0 0 26.597403-26.597403V598.441558a26.597403 26.597403 0 0 0-26.597403-26.597402H272.623377z" fill="#530505" p-id="1303"></path><path d="M73.142857 219.428571a438.857143 219.428571 0 1 0 877.714286 0 438.857143 219.428571 0 1 0-877.714286 0Z" fill="#1E3457" p-id="1304"></path><path d="M122.188468 118.531325C202.698805 70.456519 323.610597 39.896104 458.805195 39.896104c242.368831 0 438.857143 98.237506 438.857143 219.428571 0 36.385247-17.71387 70.695896-49.045611 100.897247C768.10639 408.296727 647.194597 438.857143 512 438.857143 269.631169 438.857143 73.142857 340.619636 73.142857 219.428571c0-36.385247 17.71387-70.695896 49.045611-100.897246z" fill="#405475" p-id="1305"></path><path d="M512 438.857143c242.368831 0 438.857143-98.237506 438.857143-219.428572S754.368831 0 512 0 73.142857 98.237506 73.142857 219.428571 269.631169 438.857143 512 438.857143z m0-13.298701C276.027844 425.558442 86.441558 330.765299 86.441558 219.428571S276.027844 13.298701 512 13.298701s425.558442 94.793143 425.558442 206.12987S747.972156 425.558442 512 425.558442z" fill="#12274C" p-id="1306"></path><path d="M259.324675 824.519481m53.194806 0l398.961038 0q53.194805 0 53.194806 53.194805l0 0q0 53.194805-53.194806 53.194805l-398.961038 0q-53.194805 0-53.194806-53.194805l0 0q0-53.194805 53.194806-53.194805Z" fill="#1E3457" p-id="1307"></path><path d="M312.519481 824.519481h398.961038a53.194805 53.194805 0 1 1 0 106.38961H312.519481a53.194805 53.194805 0 1 1 0-106.38961z m0 13.298701a39.896104 39.896104 0 0 0 0 79.792208h398.961038a39.896104 39.896104 0 0 0 0-79.792208H312.519481z" fill="#12274C" p-id="1308"></path><path d="M325.818182 851.116883m26.597402 0l359.064935 0q26.597403 0 26.597403 26.597403l0 0q0 26.597403-26.597403 26.597402l-359.064935 0q-26.597403 0-26.597402-26.597402l0 0q0-26.597403 26.597402-26.597403Z" fill="#E4EEFE" p-id="1309"></path><path d="M285.922078 837.818182m39.896104 0l13.298701 0q39.896104 0 39.896104 39.896104l0 0q0 39.896104-39.896104 39.896104l-13.298701 0q-39.896104 0-39.896104-39.896104l0 0q0-39.896104 39.896104-39.896104Z" fill="#4C6389" p-id="1310"></path><path d="M325.818182 837.818182h13.298701a39.896104 39.896104 0 0 1 0 79.792208h-13.298701a39.896104 39.896104 0 0 1 0-79.792208z m0 13.298701a26.597403 26.597403 0 1 0 0 53.194805h13.298701a26.597403 26.597403 0 1 0 0-53.194805h-13.298701z" fill="#12274C" p-id="1311"></path></svg>